<svg width="57" height="56" viewBox="0 0 57 56" fill="none" xmlns="http://www.w3.org/2000/svg">
<path fill-rule="evenodd" clip-rule="evenodd" d="M28.8091 56C36.2351 56 43.3571 53.05 48.6081 47.799C53.8591 42.548 56.8091 35.4261 56.8091 28C56.8091 20.5739 53.8591 13.452 48.6081 8.20101C43.3571 2.94999 36.2351 0 28.8091 0C21.383 0 14.2611 2.94999 9.01009 8.20101C3.75907 13.452 0.809082 20.5739 0.809082 28C0.809082 35.4261 3.75907 42.548 9.01009 47.799C14.2611 53.05 21.383 56 28.8091 56ZM41.7836 25.5255L31.2836 15.0255C30.6235 14.3879 29.7394 14.0352 28.8217 14.0431C27.904 14.0511 27.0261 14.4192 26.3772 15.0681C25.7283 15.7171 25.3602 16.5949 25.3522 17.5126C25.3442 18.4303 25.697 19.3144 26.3346 19.9745L30.8601 24.5H18.3091C17.3808 24.5 16.4906 24.8687 15.8342 25.5251C15.1778 26.1815 14.8091 27.0717 14.8091 28C14.8091 28.9283 15.1778 29.8185 15.8342 30.4749C16.4906 31.1313 17.3808 31.5 18.3091 31.5H30.8601L26.3346 36.0255C26.0003 36.3484 25.7337 36.7346 25.5502 37.1616C25.3668 37.5886 25.2702 38.0479 25.2662 38.5126C25.2622 38.9773 25.3507 39.4382 25.5267 39.8683C25.7027 40.2985 25.9626 40.6893 26.2912 41.0179C26.6198 41.3465 27.0106 41.6064 27.4407 41.7824C27.8709 41.9584 28.3318 42.0469 28.7965 42.0429C29.2612 42.0388 29.7205 41.9423 30.1475 41.7589C30.5745 41.5754 30.9607 41.3088 31.2836 40.9745L41.7836 30.4745C42.4397 29.8182 42.8083 28.9281 42.8083 28C42.8083 27.0719 42.4397 26.1818 41.7836 25.5255Z" fill="#FCAF17"/>
</svg>
