<svg width="214" height="69" viewBox="0 0 214 69" fill="none" xmlns="http://www.w3.org/2000/svg">
<g clip-path="url(#clip0_601_1174)">
<path d="M33.7828 65.4371C51.9937 65.4371 66.7566 50.7885 66.7566 32.7185C66.7566 14.6486 51.9937 0 33.7828 0C15.5719 0 0.809082 14.6486 0.809082 32.7185C0.809082 50.7885 15.5719 65.4371 33.7828 65.4371Z" fill="#E74B6F"/>
<path d="M46.3331 69C43.8974 61.6246 43.9374 61.7494 36.9676 42.8342C35.9727 40.1394 34.9435 37.5182 34.1831 36.5935C33.2968 35.4872 32.4678 35.2489 26.9274 36.9849L24.4059 37.7622C24.0113 37.4275 22.9421 34.9255 22.9536 34.0064C30.0263 31.4193 36.8303 28.9344 47.3909 25.3942C47.8769 25.9615 48.5973 28.2876 48.6487 28.7982L44.7093 30.3641C40.827 31.9129 40.1351 32.4349 40.1695 33.8475C40.1695 34.6532 40.6383 36.0545 41.6332 38.7494C49.6951 60.6374 52.5711 66.5888 52.5711 66.5888C52.0336 67.0029 48.5115 68.4156 46.3331 69Z" fill="#231F20"/>
<path d="M79.141 51.2082C81.2623 55.4292 81.6396 55.9569 86.2309 55.2534C87.9462 54.9924 89.1412 54.686 89.1412 54.686C89.5186 55.2136 89.8159 57.5227 89.6272 57.8177C87.409 58.5407 85.13 59.0647 82.8175 59.3836C77.0998 60.263 75.9563 59.3269 74.2009 55.3385L71.8052 49.7558C71.0791 48.1162 70.5416 48.0822 67.2711 48.5814L66.9853 48.6268C62.4111 49.3246 61.4105 49.8296 61.2676 51.4635C60.9303 54.9527 61.1189 61.148 61.1189 61.148C60.7071 61.2568 60.289 61.3402 59.8668 61.3977C58.546 61.5962 56.2418 61.8912 54.7209 61.965C56.2704 50.3686 57.534 38.8232 58.6432 25.5304C59.8954 25.2807 61.5535 24.963 63.103 24.7304C64.6525 24.4978 66.099 24.3333 66.9681 24.2595C69.8784 31.2775 74.2067 41.3478 77.866 48.6552L79.141 51.2082ZM65.7903 34.466C64.601 31.7314 64.1379 30.6364 63.4517 30.7442C62.6456 30.869 62.4912 32.5257 62.1881 35.4872L61.5821 41.8187C61.4651 42.7139 61.4288 43.6177 61.4734 44.5193C61.6793 45.8298 62.434 45.7674 65.5902 45.2909L65.876 45.2455C68.4604 44.8483 69.5982 44.6157 69.3867 43.2484C69.1884 42.4496 68.9106 41.6724 68.5576 40.928L65.7903 34.466Z" fill="#231F20"/>
<path d="M77.34 33.2859C77.0312 21.2412 81.0165 17.4003 88.2722 17.2585C96.4027 17.0883 99.4616 21.6384 99.7075 32.5767C99.8847 40.8202 98.7069 45.7447 93.521 47.5829C93.1722 47.7077 93.0578 47.7644 93.0636 47.997C93.0636 49.1317 93.9727 49.8806 96.5856 49.8239C97.7268 49.8189 98.8606 49.6409 99.9476 49.2962C100.434 50.4309 100.565 53.9484 100.399 54.3569C99.0591 54.8929 97.6244 55.1572 96.1797 55.1342C91.5312 55.2363 90.2047 53.0123 89.7302 49.7955C89.53 48.4169 89.2956 48.3601 88.7124 48.3771C81.4281 48.5303 77.6259 46.5957 77.34 33.2859ZM83.6294 42.3179C84.2355 43.4526 85.522 43.8327 88.4265 43.776C92.2002 43.6966 93.4638 43.0895 94.0184 41.9265C94.6302 40.6443 94.6702 36.8204 94.5902 32.4065C94.493 27.794 94.0184 25.2069 93.4466 24.0666C92.8749 22.9262 91.6627 22.0866 88.5866 22.1547C84.6929 22.2341 83.8353 22.8298 83.2806 23.9928C82.726 25.1559 82.503 28.4465 82.6174 33.9213C82.6631 37.6658 83.0291 41.1776 83.6351 42.3179H83.6294Z" fill="#231F20"/>
<path d="M113.356 58.9241C103.681 58.2546 102.063 55.52 102.732 46.0568C104.202 25.0652 104.081 21.7689 104.081 21.7689C105.831 21.7178 107.512 21.8313 109.227 21.9505C109.227 21.9505 108.221 37.1949 107.895 41.8074C107.392 48.9956 107.232 51.299 107.729 52.4904C108.227 53.6818 110.297 54.1073 113.773 54.3513C117.541 54.6066 118.679 54.1073 119.342 53.001C120.068 51.7756 120.2 49.8806 120.583 44.4172C121.126 36.6559 121.629 22.8242 121.629 22.8242C123.547 22.815 125.461 22.986 127.347 23.3348C127.347 23.3348 126.712 36.1567 125.911 47.6567C125.328 55.9909 123.093 59.5708 113.356 58.9241Z" fill="#231F20"/>
<path d="M134.602 56.3313C134.974 57.2958 136.203 57.8234 142.561 58.4702C148.919 59.117 154.786 59.3666 154.786 59.3666C154.916 60.7163 154.815 62.0782 154.488 63.3947C154.488 63.3947 149.182 62.7366 141.669 61.9707C133.35 61.1254 127.495 60.7055 127.495 60.7055C127.495 60.7055 128.353 54.6463 129.542 43.1804C130.806 30.852 131.172 23.9362 131.172 23.9362C131.172 23.9362 139.205 24.7531 149.234 25.485C149.32 26.8863 148.822 29.4564 148.502 29.7571C148.502 29.7571 145.86 29.3146 142.967 29.0195C138.633 28.577 136.764 28.6167 136.346 29.2692C135.929 29.9216 135.774 31.0676 135.483 33.6434C135.1 37.3708 135.22 39.0104 135.449 39.6118C135.774 40.4571 136.804 40.616 141.429 41.0869C144.322 41.3819 147.181 41.4159 147.181 41.4159C147.259 42.6713 147.149 43.9312 146.855 45.1547L143.379 44.82C137.313 44.2016 136.129 44.3718 135.569 45.2455C135.22 45.8128 134.928 47.5148 134.66 50.0792C134.454 52.0819 134.225 55.4236 134.602 56.3313Z" fill="#231F20"/>
<path d="M160.463 26.3701H160.749C169.726 27.1133 174.077 30.7726 173.557 37.6715C173.048 43.7023 169.972 45.6143 167.267 46.4029C169.36 47.1574 171.15 48.7517 170.887 51.9117C170.744 53.6138 170.446 55.0548 170.315 56.7795C170.023 60.2233 171.298 61.0232 176.507 61.4544C179.114 61.67 182.082 61.687 182.082 61.687C182.328 62.2544 182.082 64.5748 181.819 64.8471C181.819 64.8471 179.16 65.2613 173.368 64.7847C166.427 64.2174 164.151 62.8047 164.551 58.039C164.746 55.7697 165.066 54.0279 165.163 52.8819C165.325 51.7654 165.222 50.6268 164.86 49.5573C164.46 48.7176 163.374 47.8155 160.189 47.5546C156.833 47.2766 156.278 47.634 156.004 48.0709C155.598 48.7346 155.432 49.7729 155.192 52.9216C155.066 54.357 155.049 56.6717 155.049 56.6717C154.477 56.7966 150.263 56.7398 148.839 56.3313C148.839 56.3313 149.411 51.577 149.897 45.8355L149.949 45.2682C151.155 30.9088 151.275 25.9786 151.275 25.9786C151.275 25.9786 153.225 25.7687 160.463 26.3701ZM166.661 43.4811C167.725 42.5903 167.868 40.8656 168.125 37.8077C168.319 35.5383 168.314 33.4845 167.702 32.452C167.193 31.5442 165.958 30.9769 161.618 30.6194C158.434 30.3528 157.667 30.4663 157.044 30.9939C156.169 31.7258 155.901 34.483 155.466 39.3622C155.3 41.3762 155.335 42.3577 156.038 43.169C156.461 43.6683 157.307 44.0257 159.045 44.1675C162.899 44.5023 165.529 44.4285 166.661 43.4811Z" fill="#231F20"/>
<path d="M181.373 53.4039C181.304 54.8392 181.293 56.4562 181.218 58.0674C179.553 58.1995 177.879 58.1653 176.221 57.9653C176.221 57.9653 176.467 55.0889 176.713 49.6197C176.987 43.5718 177.113 35.7766 177.113 35.7766C178.937 35.7244 180.761 35.8231 182.568 36.0716C182.568 36.0716 181.762 44.6498 181.373 53.4039Z" fill="#231F20"/>
<path d="M175.381 28.1117C175.381 28.1117 181.613 27.5444 192.093 26.6877C198.08 26.2168 200.493 26.2054 200.493 26.2054C204.558 38.5565 209.069 50.6975 213.809 62.9408C211.533 63.2479 209.243 63.4372 206.948 63.5081C206.948 63.5081 204.809 56.3823 202.946 52.0421C202.202 50.3061 201.59 50.1756 198.371 50.4366H198.011C193.643 50.7827 192.997 51.0039 192.585 52.6549C191.676 56.3142 190.418 64.6655 190.418 64.6655C188.363 65.0275 186.284 65.2323 184.197 65.2782C185.69 58.2886 186.753 52.7967 188.457 44.0143C190.161 35.2318 190.51 32.7923 190.435 31.9015C190.361 31.0108 189.749 30.8179 187.033 30.7669C183.24 30.7382 179.447 30.9125 175.672 31.2888C175.337 30.2647 175.237 29.1791 175.381 28.1117ZM198.068 35.0673C197.136 32.4462 196.799 31.998 196.319 32.032C195.718 32.0831 195.444 33.1213 194.964 35.4361L193.334 43.6398C192.654 47.1573 192.9 47.2595 197.096 46.9304H197.394C201.882 46.5787 201.968 46.2723 200.876 43.0668L198.068 35.0673Z" fill="#231F20"/>
<path d="M18.0078 9.5881L27.5906 20.9633L28.1967 3.82959L18.0078 9.5881Z" fill="#231F20"/>
<path d="M11.5812 17.389L23.5368 26.6821L4.46838 28.5827L11.5812 17.389Z" fill="#231F20"/>
<path d="M35.8241 21.2129L35.6525 3.98279L43.8974 7.36414L35.8241 21.2129Z" fill="#231F20"/>
<path d="M21.9187 59.724L11.8727 52.9557L25.2349 44.5533L21.9187 59.724Z" fill="#231F20"/>
<path d="M8.11055 36.8431L19.3 38.2501L7.79608 44.9107L8.11055 36.8431Z" fill="#231F20"/>
<path d="M86.2367 55.2533C81.6625 55.9568 81.268 55.4292 79.1468 51.2082L77.866 48.6608C74.2067 41.3478 69.8613 31.2775 66.9681 24.2652C66.6251 24.2935 66.1677 24.3389 65.6759 24.3957C63.9925 18.0331 60.416 12.3215 55.4128 8.00564C50.4096 3.68982 44.2118 0.970083 37.6278 0.201108C31.0437 -0.567867 24.3789 0.649605 18.5025 3.69476C12.6261 6.73991 7.81081 11.4714 4.68456 17.2723C1.5583 23.0731 0.266183 29.6741 0.976695 36.2144C1.68721 42.7547 4.36738 48.9308 8.6677 53.9373C12.968 58.9438 18.6889 62.5484 25.0844 64.2809C31.4798 66.0135 38.253 65.7936 44.5206 63.65C45.0924 65.2385 45.5727 66.7817 46.3102 69.0057C48.4887 68.4383 52.0279 67.0086 52.5482 66.6058C52.5482 66.6058 51.8506 65.1591 50.1811 61.0913C51.9894 60.0582 53.6952 58.8577 55.2755 57.5057C55.0887 58.9997 54.8982 60.4918 54.7038 61.982C56.2247 61.9253 58.5289 61.6303 59.8497 61.4147C60.2718 61.3572 60.69 61.2738 61.1018 61.165C61.1018 61.165 60.9131 54.9697 61.2505 51.4805C61.4049 49.8239 62.394 49.319 66.9681 48.6438L67.254 48.5984C70.5245 48.0992 71.062 48.1332 71.7881 49.7728L74.1838 55.3555C75.8991 59.3269 77.0427 60.28 82.8003 59.4006C85.1129 59.0817 87.3919 58.5577 89.6101 57.8347C89.7988 57.517 89.5014 55.2306 89.1241 54.703C89.1469 54.6917 87.9634 54.9924 86.2367 55.2533ZM65.8761 45.2454L65.5902 45.2908C65.0184 45.3759 64.5667 45.4383 64.1493 45.4951C65.4049 42.5521 66.2178 39.442 66.5622 36.2644L68.5576 40.928C68.9107 41.6723 69.1884 42.4496 69.3867 43.2484C69.5983 44.6157 68.4604 44.8483 65.8761 45.2454Z" fill="white"/>
<path d="M96.5742 49.8295C93.9612 49.8863 93.075 49.1544 93.0521 48.0027C93.0521 47.7701 93.1608 47.7133 93.5095 47.5885C98.6954 45.7503 99.8733 40.8485 99.7246 32.5824C99.4902 21.6384 96.4312 17.0883 88.2893 17.2642C81.0336 17.4174 77.0484 21.2356 77.3572 33.2915C77.643 46.6014 81.4624 48.536 88.7181 48.3885C89.2899 48.3885 89.5358 48.4282 89.7359 49.8068C90.2104 53.0237 91.5369 55.2476 96.1854 55.1455C97.6301 55.1685 99.0649 54.9042 100.405 54.3683C100.571 53.9598 100.439 50.4479 99.9533 49.3076C98.8605 49.6521 97.7209 49.8281 96.5742 49.8295ZM88.4323 43.776C85.5277 43.8327 84.2412 43.4583 83.6351 42.3179C83.0291 41.1776 82.6631 37.6657 82.5831 33.9213C82.4687 28.4465 82.7489 25.0992 83.2463 23.9928C83.7438 22.8865 84.6586 22.2341 88.5523 22.1547C91.6284 22.0866 92.812 22.9262 93.4123 24.0666C94.0127 25.2069 94.4815 27.794 94.5559 32.4065C94.6531 36.8431 94.613 40.6443 93.9841 41.9265C93.4695 43.1179 92.2059 43.6852 88.4323 43.776Z" fill="white"/>
<path d="M120.606 44.4001C120.222 49.8636 120.091 51.7755 119.365 52.9839C118.702 54.1186 117.564 54.5895 113.796 54.3342C110.319 54.0902 108.255 53.6591 107.752 52.4733C107.249 51.2876 107.415 48.9785 107.918 41.7903C108.244 37.1948 109.25 21.9334 109.25 21.9334C107.535 21.8142 105.82 21.7008 104.104 21.7518C104.104 21.7518 104.224 25.0537 102.755 46.0397C102.086 55.5256 103.704 58.2375 113.378 58.907C123.053 59.5764 125.351 55.9738 125.957 47.6396C126.758 36.1396 127.427 23.3007 127.427 23.3007C125.541 22.9518 123.627 22.7809 121.709 22.79C121.709 22.79 121.149 36.6388 120.606 44.4001Z" fill="white"/>
<path d="M142.556 58.4702C136.198 57.8234 134.968 57.2958 134.597 56.3313C134.225 55.3669 134.454 52.0819 134.66 50.0906C134.928 47.5092 135.231 45.8015 135.569 45.2568C136.14 44.3831 137.313 44.2129 143.379 44.8313L146.85 45.1888C147.148 43.9545 147.26 42.6829 147.181 41.4159C147.181 41.4159 144.322 41.3592 141.435 41.0642C136.809 40.5933 135.78 40.4344 135.454 39.5891C135.226 38.9877 135.105 37.3481 135.489 33.6207C135.757 31.0449 135.929 29.9046 136.352 29.2465C136.775 28.5884 138.639 28.5543 142.973 28.9968C145.866 29.2919 148.508 29.7344 148.508 29.7344C148.828 29.4167 149.325 26.8636 149.24 25.4623C139.205 24.7531 131.172 23.9362 131.172 23.9362C131.172 23.9362 130.806 30.852 129.536 43.1804C128.347 54.6463 127.49 60.7055 127.49 60.7055C127.49 60.7055 133.344 61.1254 141.664 61.9707C149.177 62.7366 154.483 63.3947 154.483 63.3947C154.809 62.0782 154.91 60.7163 154.78 59.3666C154.78 59.3666 148.897 59.117 142.556 58.4702Z" fill="white"/>
<path d="M176.513 61.4771C171.304 61.0459 170.029 60.2459 170.321 56.8022C170.464 55.1002 170.761 53.6534 170.892 51.9344C171.155 48.7743 169.366 47.1801 167.273 46.4255C169.96 45.6653 173.036 43.725 173.563 37.6941C174.083 30.7953 169.732 27.1359 160.755 26.3927H160.469C153.23 25.7913 151.286 26.0353 151.286 26.0353C151.286 26.0353 151.166 30.9428 149.96 45.3249L149.909 45.8922C149.428 51.6337 148.851 56.388 148.851 56.388C150.274 56.7965 154.466 56.8532 155.06 56.7284C155.06 56.7284 155.06 54.4137 155.203 52.9783C155.466 49.8182 155.609 48.7913 156.015 48.1275C156.289 47.6907 156.844 47.3333 160.2 47.6113C163.385 47.8722 164.471 48.7459 164.872 49.614C165.233 50.6835 165.337 51.8221 165.175 52.9386C165.077 54.0733 164.757 55.7753 164.563 58.0957C164.163 62.8614 166.438 64.2627 173.38 64.8414C179.172 65.318 181.83 64.9038 181.83 64.9038C182.088 64.6315 182.339 62.3394 182.093 61.7437C182.088 61.7097 179.12 61.6927 176.513 61.4771ZM159.022 44.1788C157.307 44.037 156.438 43.6796 156.015 43.1803C155.329 42.369 155.295 41.3875 155.443 39.3735C155.855 34.4943 156.146 31.7371 157.021 31.0052C157.65 30.4776 158.416 30.3641 161.595 30.6307C165.935 30.9882 167.17 31.5555 167.679 32.4632C168.291 33.4958 168.297 35.5212 168.102 37.8189C167.845 40.8656 167.702 42.5903 166.638 43.4924C165.575 44.3944 162.899 44.5022 159.022 44.1788Z" fill="white"/>
<path d="M177.113 35.7766C177.113 35.7766 176.987 43.5718 176.713 49.6197C176.467 55.0888 176.221 57.9653 176.221 57.9653C177.879 58.1653 179.553 58.1995 181.218 58.0674C181.293 56.4561 181.304 54.8392 181.373 53.4038C181.762 44.6498 182.562 36.0716 182.562 36.0716C180.757 35.8229 178.935 35.7242 177.113 35.7766Z" fill="white"/>
<path d="M33.7828 65.4371C51.9937 65.4371 66.7566 50.7885 66.7566 32.7185C66.7566 14.6486 51.9937 0 33.7828 0C15.5719 0 0.809082 14.6486 0.809082 32.7185C0.809082 50.7885 15.5719 65.4371 33.7828 65.4371Z" fill="#F72A58"/>
<path d="M46.3331 69C43.8974 61.6246 43.9374 61.7494 36.9676 42.8342C35.9727 40.1394 34.9435 37.5182 34.1831 36.5935C33.2968 35.4872 32.4678 35.2489 26.9274 36.9849L24.4059 37.7622C24.0113 37.4275 22.9421 34.9255 22.9536 34.0064C30.0263 31.4193 36.8303 28.9344 47.3909 25.3942C47.8769 25.9615 48.5973 28.2876 48.6487 28.7982L44.7093 30.3641C40.827 31.9129 40.1351 32.4349 40.1695 33.8475C40.1695 34.6532 40.6383 36.0545 41.6332 38.7494C49.6951 60.6374 52.5711 66.5888 52.5711 66.5888C52.0336 67.0029 48.5115 68.4156 46.3331 69Z" fill="#0A0203"/>
<path d="M79.141 51.2082C81.2623 55.4292 81.6396 55.9569 86.2309 55.2534C87.9462 54.9924 89.1412 54.686 89.1412 54.686C89.5186 55.2136 89.8159 57.5227 89.6272 57.8177C87.409 58.5407 85.13 59.0647 82.8175 59.3836C77.0998 60.263 75.9563 59.3269 74.2009 55.3385L71.8052 49.7558C71.0791 48.1162 70.5416 48.0822 67.2711 48.5814L66.9853 48.6268C62.4111 49.3246 61.4105 49.8296 61.2676 51.4635C60.9303 54.9527 61.1189 61.148 61.1189 61.148C60.7071 61.2568 60.289 61.3402 59.8668 61.3977C58.546 61.5962 56.2418 61.8912 54.7209 61.965C56.2704 50.3686 57.534 38.8232 58.6432 25.5304C59.8954 25.2807 61.5535 24.963 63.103 24.7304C64.6525 24.4978 66.099 24.3333 66.9681 24.2595C69.8784 31.2775 74.2067 41.3478 77.866 48.6552L79.141 51.2082ZM65.7903 34.466C64.601 31.7314 64.1379 30.6364 63.4517 30.7442C62.6456 30.869 62.4912 32.5257 62.1881 35.4872L61.5821 41.8187C61.4651 42.7139 61.4288 43.6177 61.4734 44.5193C61.6793 45.8298 62.434 45.7674 65.5902 45.2909L65.876 45.2455C68.4604 44.8483 69.5982 44.6157 69.3867 43.2484C69.1884 42.4496 68.9106 41.6724 68.5576 40.928L65.7903 34.466Z" fill="#0A0203"/>
<path d="M77.34 33.2859C77.0312 21.2412 81.0165 17.4003 88.2722 17.2585C96.4027 17.0883 99.4616 21.6384 99.7075 32.5767C99.8847 40.8202 98.7069 45.7447 93.521 47.5829C93.1722 47.7077 93.0578 47.7644 93.0636 47.997C93.0636 49.1317 93.9727 49.8806 96.5856 49.8239C97.7268 49.8189 98.8606 49.6409 99.9476 49.2962C100.434 50.4309 100.565 53.9484 100.399 54.3569C99.0591 54.8929 97.6244 55.1572 96.1797 55.1342C91.5312 55.2363 90.2047 53.0123 89.7302 49.7955C89.53 48.4169 89.2956 48.3601 88.7124 48.3771C81.4281 48.5303 77.6259 46.5957 77.34 33.2859ZM83.6294 42.3179C84.2355 43.4526 85.522 43.8327 88.4265 43.776C92.2002 43.6966 93.4638 43.0895 94.0184 41.9265C94.6302 40.6443 94.6702 36.8204 94.5902 32.4065C94.493 27.794 94.0184 25.2069 93.4466 24.0666C92.8749 22.9262 91.6627 22.0866 88.5866 22.1547C84.6929 22.2341 83.8353 22.8298 83.2806 23.9928C82.726 25.1559 82.503 28.4465 82.6174 33.9213C82.6631 37.6658 83.0291 41.1776 83.6351 42.3179H83.6294Z" fill="#0A0203"/>
<path d="M113.356 58.9241C103.681 58.2546 102.063 55.52 102.732 46.0568C104.202 25.0652 104.081 21.7689 104.081 21.7689C105.831 21.7178 107.512 21.8313 109.227 21.9505C109.227 21.9505 108.221 37.1949 107.895 41.8074C107.392 48.9956 107.232 51.299 107.729 52.4904C108.227 53.6818 110.297 54.1073 113.773 54.3513C117.541 54.6066 118.679 54.1073 119.342 53.001C120.068 51.7756 120.2 49.8806 120.583 44.4172C121.126 36.6559 121.629 22.8242 121.629 22.8242C123.547 22.815 125.461 22.986 127.347 23.3348C127.347 23.3348 126.712 36.1567 125.911 47.6567C125.328 55.9909 123.093 59.5708 113.356 58.9241Z" fill="#0A0203"/>
<path d="M134.602 56.3313C134.974 57.2958 136.203 57.8234 142.561 58.4702C148.919 59.117 154.786 59.3666 154.786 59.3666C154.916 60.7163 154.815 62.0782 154.488 63.3947C154.488 63.3947 149.182 62.7366 141.669 61.9707C133.35 61.1254 127.495 60.7055 127.495 60.7055C127.495 60.7055 128.353 54.6463 129.542 43.1804C130.806 30.852 131.172 23.9362 131.172 23.9362C131.172 23.9362 139.205 24.7531 149.234 25.485C149.32 26.8863 148.822 29.4564 148.502 29.7571C148.502 29.7571 145.86 29.3146 142.967 29.0195C138.633 28.577 136.764 28.6167 136.346 29.2692C135.929 29.9216 135.774 31.0676 135.483 33.6434C135.1 37.3708 135.22 39.0104 135.449 39.6118C135.774 40.4571 136.804 40.616 141.429 41.0869C144.322 41.3819 147.181 41.4159 147.181 41.4159C147.259 42.6713 147.149 43.9312 146.855 45.1547L143.379 44.82C137.313 44.2016 136.129 44.3718 135.569 45.2455C135.22 45.8128 134.928 47.5148 134.66 50.0792C134.454 52.0819 134.225 55.4236 134.602 56.3313Z" fill="#0A0203"/>
<path d="M160.463 26.3701H160.749C169.726 27.1133 174.077 30.7726 173.557 37.6715C173.048 43.7023 169.972 45.6143 167.267 46.4029C169.36 47.1574 171.15 48.7517 170.887 51.9117C170.744 53.6138 170.446 55.0548 170.315 56.7795C170.023 60.2233 171.298 61.0232 176.507 61.4544C179.114 61.67 182.082 61.687 182.082 61.687C182.328 62.2544 182.082 64.5748 181.819 64.8471C181.819 64.8471 179.16 65.2613 173.368 64.7847C166.427 64.2174 164.151 62.8047 164.551 58.039C164.746 55.7697 165.066 54.0279 165.163 52.8819C165.325 51.7654 165.222 50.6268 164.86 49.5573C164.46 48.7176 163.374 47.8155 160.189 47.5546C156.833 47.2766 156.278 47.634 156.004 48.0709C155.598 48.7346 155.432 49.7729 155.192 52.9216C155.066 54.357 155.049 56.6717 155.049 56.6717C154.477 56.7966 150.263 56.7398 148.839 56.3313C148.839 56.3313 149.411 51.577 149.897 45.8355L149.949 45.2682C151.155 30.9088 151.275 25.9786 151.275 25.9786C151.275 25.9786 153.225 25.7687 160.463 26.3701ZM166.661 43.4811C167.725 42.5903 167.868 40.8656 168.125 37.8077C168.319 35.5383 168.314 33.4845 167.702 32.452C167.193 31.5442 165.958 30.9769 161.618 30.6194C158.434 30.3528 157.667 30.4663 157.044 30.9939C156.169 31.7258 155.901 34.483 155.466 39.3622C155.3 41.3762 155.335 42.3577 156.038 43.169C156.461 43.6683 157.307 44.0257 159.045 44.1675C162.899 44.5023 165.529 44.4285 166.661 43.4811Z" fill="#0A0203"/>
<path d="M181.373 53.4039C181.304 54.8392 181.293 56.4562 181.218 58.0674C179.553 58.1995 177.879 58.1653 176.221 57.9653C176.221 57.9653 176.467 55.0889 176.713 49.6197C176.987 43.5718 177.113 35.7766 177.113 35.7766C178.937 35.7244 180.761 35.8231 182.568 36.0716C182.568 36.0716 181.762 44.6498 181.373 53.4039Z" fill="#0A0203"/>
<path d="M175.381 28.1117C175.381 28.1117 181.613 27.5444 192.093 26.6877C198.08 26.2168 200.493 26.2054 200.493 26.2054C204.558 38.5565 209.069 50.6975 213.809 62.9408C211.533 63.2479 209.243 63.4372 206.948 63.5081C206.948 63.5081 204.809 56.3823 202.946 52.0421C202.202 50.3061 201.59 50.1756 198.371 50.4366H198.011C193.643 50.7827 192.997 51.0039 192.585 52.6549C191.676 56.3142 190.418 64.6655 190.418 64.6655C188.363 65.0275 186.284 65.2323 184.197 65.2782C185.69 58.2886 186.753 52.7967 188.457 44.0143C190.161 35.2318 190.51 32.7923 190.435 31.9015C190.361 31.0108 189.749 30.8179 187.033 30.7669C183.24 30.7382 179.447 30.9125 175.672 31.2888C175.337 30.2647 175.237 29.1791 175.381 28.1117ZM198.068 35.0673C197.136 32.4462 196.799 31.998 196.319 32.032C195.718 32.0831 195.444 33.1213 194.964 35.4361L193.334 43.6398C192.654 47.1573 192.9 47.2595 197.096 46.9304H197.394C201.882 46.5787 201.968 46.2723 200.876 43.0668L198.068 35.0673Z" fill="#0A0203"/>
<path d="M18.0078 9.5881L27.5906 20.9633L28.1967 3.82959L18.0078 9.5881Z" fill="#0A0203"/>
<path d="M11.5812 17.389L23.5368 26.6821L4.46838 28.5827L11.5812 17.389Z" fill="#0A0203"/>
<path d="M35.8241 21.2129L35.6525 3.98279L43.8974 7.36414L35.8241 21.2129Z" fill="#0A0203"/>
<path d="M21.9187 59.724L11.8727 52.9557L25.2349 44.5533L21.9187 59.724Z" fill="#0A0203"/>
<path d="M8.11055 36.8431L19.3 38.2501L7.79608 44.9107L8.11055 36.8431Z" fill="#0A0203"/>
</g>
<defs>
<clipPath id="clip0_601_1174">
<rect width="213" height="69" fill="white" transform="translate(0.809082)"/>
</clipPath>
</defs>
</svg>
