<svg width="108" height="69" viewBox="0 0 108 69" fill="none" xmlns="http://www.w3.org/2000/svg">
<path d="M106.906 38.8273C106.906 46.542 101.866 51.2978 94.3198 51.2978H85.2948V37.1518L90.8648 31.5683V46.0484H94.1096C97.9521 46.0484 101.088 43.8287 101.088 38.8273C101.088 33.826 97.9521 31.5708 94.1096 31.5708H85.2948V26.3188H94.3553C101.866 26.3188 106.906 31.1127 106.906 38.8273Z" fill="#333333"/>
<path d="M74.2713 39.7081L62.0699 51.3687H51.3882L59.2354 37.7896L62.8779 43.7629H70.0133L62.698 31.7986L66.1986 25.7393L74.2713 39.7081ZM77.1563 44.6994L70.1957 51.3687H81.0115L77.1563 44.6994Z" fill="url(#paint0_linear_602_32)"/>
<path d="M52.0848 58.3719H54.4329V66.6536H59.395V68.7366H52.0848V58.3719Z" fill="#333333"/>
<path d="M70.2007 58.3719H72.7995L76.5939 68.7366H74.028L73.2352 66.36H69.5801L68.7873 68.7366H66.3303L70.2007 58.3719ZM72.6729 64.5427L71.414 60.6271L70.1221 64.5427H72.6729Z" fill="#333333"/>
<path d="M83.932 58.3719H87.8201C88.4635 58.3719 89.0056 58.4479 89.4539 58.5972C89.8997 58.7491 90.2619 58.9465 90.5431 59.1945C90.8217 59.4426 91.0244 59.7311 91.1485 60.0576C91.2726 60.3841 91.3359 60.7233 91.3359 61.0751C91.3359 61.4067 91.2777 61.7003 91.1561 61.9534C91.037 62.2065 90.8977 62.4242 90.7356 62.6064C90.576 62.7886 90.4089 62.9304 90.2315 63.0341C90.0542 63.1379 89.9048 63.2063 89.7807 63.2366C89.9782 63.2873 90.1834 63.3657 90.4038 63.4695C90.8293 63.6568 91.1814 63.9453 91.46 64.3402C91.7412 64.7325 91.8805 65.2109 91.8805 65.7702C91.8805 66.3093 91.7843 66.7649 91.5943 67.137C91.4018 67.5091 91.1333 67.8153 90.7863 68.0532C90.4393 68.2911 90.0137 68.4658 89.5122 68.5746C89.0106 68.6835 88.4458 68.7391 87.8252 68.7391H83.9371V58.3719H83.932ZM87.6023 62.5229C87.7796 62.5229 87.9519 62.5026 88.1241 62.4621C88.2963 62.4216 88.4458 62.3558 88.575 62.2672C88.7042 62.1787 88.8105 62.0597 88.8941 61.9104C88.9777 61.7585 89.0182 61.5763 89.0182 61.3586C89.0182 61.1308 88.9752 60.941 88.8941 60.7916C88.8105 60.6423 88.7016 60.5233 88.5674 60.4348C88.4331 60.3487 88.2786 60.2854 88.1089 60.2475C87.9367 60.212 87.7695 60.1943 87.6048 60.1943H86.2218V62.5254H87.6023V62.5229ZM87.7442 66.9345C87.9088 66.9345 88.0962 66.9218 88.3039 66.8965C88.5116 66.8712 88.7042 66.8105 88.8815 66.7168C89.0562 66.6232 89.2031 66.489 89.3247 66.3119C89.4438 66.1347 89.502 65.8917 89.502 65.5829C89.502 65.302 89.4438 65.0742 89.3298 64.8995C89.2158 64.7249 89.0714 64.5857 88.8941 64.487C88.7168 64.3883 88.5268 64.3225 88.3191 64.2845C88.1114 64.2491 87.9215 64.2313 87.7442 64.2313H86.2193V66.9345H87.7442Z" fill="#333333"/>
<path d="M100.477 65.6462C100.612 65.793 100.771 65.9398 100.951 66.0891C101.134 66.2385 101.336 66.3751 101.557 66.5017C101.779 66.6257 102.023 66.727 102.289 66.8054C102.552 66.8839 102.836 66.9219 103.135 66.9219C103.312 66.9219 103.487 66.8965 103.664 66.8434C103.841 66.7928 104.001 66.7168 104.148 66.6181C104.292 66.5194 104.409 66.4005 104.497 66.2613C104.583 66.122 104.629 65.9626 104.629 65.7879C104.629 65.4058 104.442 65.1071 104.069 64.8945C103.697 64.6819 103.104 64.4718 102.296 64.2642C101.901 64.1706 101.536 64.0365 101.199 63.8593C100.863 63.6821 100.571 63.472 100.331 63.2215C100.087 62.9734 99.8974 62.6899 99.7632 62.366C99.6289 62.0445 99.5606 61.6876 99.5606 61.2953C99.5606 60.86 99.6391 60.4499 99.7936 60.0678C99.9481 59.683 100.184 59.3439 100.5 59.0503C100.817 58.7567 101.21 58.5213 101.683 58.3517C102.154 58.1796 102.712 58.0961 103.355 58.0961C103.884 58.0961 104.35 58.1492 104.756 58.2581C105.158 58.3669 105.503 58.496 105.789 58.6453C106.075 58.7946 106.308 58.9516 106.488 59.111C106.671 59.2705 106.807 59.3996 106.901 59.4907L105.549 60.9815C105.435 60.8878 105.303 60.7866 105.153 60.6777C105.001 60.5689 104.834 60.4677 104.649 60.374C104.462 60.2804 104.257 60.2019 104.034 60.1412C103.811 60.0804 103.575 60.0475 103.327 60.0475C103.162 60.0475 102.998 60.0728 102.836 60.126C102.676 60.1766 102.529 60.2475 102.4 60.3361C102.271 60.4246 102.167 60.5284 102.088 60.6474C102.01 60.7663 101.972 60.8929 101.972 61.027C101.972 61.3788 102.159 61.6649 102.532 61.8825C102.907 62.1002 103.418 62.2824 104.072 62.4267C104.454 62.5204 104.832 62.6469 105.199 62.8064C105.566 62.9683 105.896 63.1759 106.187 63.4366C106.476 63.6948 106.711 64.0137 106.886 64.3933C107.063 64.7705 107.149 65.2286 107.149 65.7677C107.149 66.2334 107.046 66.6637 106.838 67.0585C106.63 67.4534 106.346 67.7951 105.989 68.0836C105.632 68.3721 105.212 68.5999 104.73 68.7594C104.247 68.9189 103.727 68.9998 103.168 68.9998C102.648 68.9998 102.177 68.9492 101.752 68.8505C101.326 68.7518 100.944 68.6227 100.602 68.4607C100.26 68.3013 99.9506 68.1165 99.6745 67.909C99.401 67.7014 99.1629 67.4888 98.9678 67.2711L100.477 65.6462Z" fill="#333333"/>
<path d="M49.8091 48.476C47.9047 50.4478 45.0064 52 40.7971 52C33.5982 52 27.8091 46.8278 27.8091 39.0518C27.8091 31.2758 33.7376 26 40.7261 26C44.588 26 47.3342 27.2741 49.2056 28.9956L46.1247 33.8923C45.1839 32.5929 43.5255 31.4174 40.7261 31.4174C37.3739 31.4174 33.5982 33.8088 33.5982 39.0518C33.5982 43.7311 37.0569 46.441 40.7971 46.441C43.9744 46.441 45.7468 44.8965 46.6673 43.3645L49.8091 48.476Z" fill="#333333"/>
<path d="M23.8091 31.2898V26H18.5378H6.80908V51H23.8091V45.7102H12.7779V40.9144H19.3793L22.3705 36.0122H12.7779V31.2898H23.8091Z" fill="#333333"/>
<path d="M15.2847 10.54C16.0947 10.105 16.6347 9.31 16.6347 8.23C16.6347 6.565 15.2847 5.5 12.7647 5.5H7.84467V16H13.0647C15.7647 16 17.1747 14.95 17.1747 13.15C17.1747 11.785 16.4097 10.9 15.2847 10.54ZM12.5547 7.03C13.9047 7.03 14.6697 7.51 14.6697 8.485C14.6697 9.445 13.9047 9.925 12.5547 9.925H9.79467V7.03H12.5547ZM12.9447 14.47H9.79467V11.44H12.9447C14.4147 11.44 15.2097 11.905 15.2097 12.955C15.2097 14.005 14.4147 14.47 12.9447 14.47ZM25.2558 7.99V12.04C25.2558 13.645 24.3708 14.455 23.0658 14.455C21.8808 14.455 21.1908 13.765 21.1908 12.31V7.99H19.3158V12.565C19.3158 14.98 20.7108 16.105 22.7658 16.105C23.8008 16.105 24.7458 15.715 25.3458 14.98V16H27.1308V7.99H25.2558ZM30.8308 6.67C31.5358 6.67 32.0308 6.16 32.0308 5.5C32.0308 4.885 31.5208 4.42 30.8308 4.42C30.1408 4.42 29.6308 4.915 29.6308 5.545C29.6308 6.175 30.1408 6.67 30.8308 6.67ZM29.8858 16H31.7608V7.99H29.8858V16ZM34.5217 16H36.3967V4.87H34.5217V16ZM43.8431 14.23C43.5581 14.455 43.1831 14.56 42.7931 14.56C42.0731 14.56 41.6831 14.14 41.6831 13.36V9.55H43.8281V8.05H41.6831V6.22H39.8081V8.05H38.4881V9.55H39.8081V13.405C39.8081 15.175 40.8131 16.105 42.5681 16.105C43.2431 16.105 43.9181 15.925 44.3681 15.565L43.8431 14.23ZM58.2761 10.54C59.0861 10.105 59.6261 9.31 59.6261 8.23C59.6261 6.565 58.2761 5.5 55.7561 5.5H50.8361V16H56.0561C58.7561 16 60.1661 14.95 60.1661 13.15C60.1661 11.785 59.4011 10.9 58.2761 10.54ZM55.5461 7.03C56.8961 7.03 57.6611 7.51 57.6611 8.485C57.6611 9.445 56.8961 9.925 55.5461 9.925H52.7861V7.03H55.5461ZM55.9361 14.47H52.7861V11.44H55.9361C57.4061 11.44 58.2011 11.905 58.2011 12.955C58.2011 14.005 57.4061 14.47 55.9361 14.47ZM68.0672 7.99L65.5322 13.915L63.0122 7.99H61.0622L64.5572 16.03L64.4222 16.345C64.0622 17.14 63.6722 17.455 63.0122 17.455C62.5022 17.455 61.9922 17.245 61.6322 16.9L60.8822 18.28C61.3922 18.745 62.2322 19.015 63.0272 19.015C64.3622 19.015 65.3822 18.46 66.1172 16.645L69.8672 7.99H68.0672Z" fill="black"/>
<defs>
<linearGradient id="paint0_linear_602_32" x1="51.3906" y1="38.5532" x2="81.0093" y2="38.5532" gradientUnits="userSpaceOnUse">
<stop stop-color="#EA3867"/>
<stop offset="0.1088" stop-color="#EB3D62"/>
<stop offset="0.3033" stop-color="#EE4B53"/>
<stop offset="0.5608" stop-color="#F36137"/>
<stop offset="0.8686" stop-color="#F9810C"/>
<stop offset="0.9132" stop-color="#FA8601"/>
</linearGradient>
</defs>
</svg>
